<?xml version="1.0" encoding="UTF-8" standalone="no"?>
<!-- Created with Inkscape (http://www.inkscape.org/) -->

<svg
   width="35.522243"
   height="49.896469"
   viewBox="0 0 35.522243 49.896469"
   version="1.1"
   id="svg1020"
   inkscape:version="1.2.2 (b0a8486541, 2022-12-01)"
   sodipodi:docname="heliumSVG.svg"
   xmlns:inkscape="http://www.inkscape.org/namespaces/inkscape"
   xmlns:sodipodi="http://sodipodi.sourceforge.net/DTD/sodipodi-0.dtd"
   xmlns="http://www.w3.org/2000/svg"
   xmlns:svg="http://www.w3.org/2000/svg">
  <sodipodi:namedview
     id="namedview1022"
     pagecolor="#ffffff"
     bordercolor="#000000"
     borderopacity="0.25"
     inkscape:showpageshadow="2"
     inkscape:pageopacity="0.0"
     inkscape:pagecheckerboard="0"
     inkscape:deskcolor="#d1d1d1"
     inkscape:document-units="mm"
     showgrid="false"
     showguides="true"
     inkscape:zoom="2.587745"
     inkscape:cx="-13.332071"
     inkscape:cy="9.4677026"
     inkscape:window-width="1278"
     inkscape:window-height="1360"
     inkscape:window-x="1688"
     inkscape:window-y="124"
     inkscape:window-maximized="0"
     inkscape:current-layer="layer1">
    <sodipodi:guide
       position="-45.2151,-277.344"
       orientation="1,0"
       id="guide2784"
       inkscape:locked="false" />
  </sodipodi:namedview>
  <defs
     id="defs1017" />
  <g
     inkscape:label="Layer 1"
     inkscape:groupmode="layer"
     id="layer1"
     transform="translate(-63.2104,-116.71643)">
    <path
       id="path354"
       style="fill:#000000;stroke:none;stroke-width:0.271445;stroke-linecap:round;stroke-linejoin:round"
       d="m 35.52076,19.3118 c 0.08856,9.95124 -3.80396,15.94556 -8.385015,20.72581 -3.384757,3.53195 -4.978623,7.54544 -8.368683,8.09015 -0.169579,0.0273 -1.00478,0.87076 0.08978,1.67783 0.260449,0.19203 -0.872682,0.0197 -0.988781,0.022 -0.139447,-0.006 -1.327082,0.0334 -1.03678,-0.17365 0.991525,-0.70767 0.290533,-1.51895 0.104416,-1.56184 -3.595496,-0.82857 -3.449743,-2.91301 -7.8992,-8.07625 -5.499062,-6.38121 -8.682255,-10.9336 -9.032419,-20.02281 -0.208095,-10.85212 7.573878,-19.80196 17.381535,-19.99003 9.807657,-0.18807 18.038531,8.4553 18.135116,19.30898 z"
       sodipodi:nodetypes="sssscssscsss" />
  </g>
</svg>
